<svg width="22" height="33" viewBox="0 0 22 33" fill="none" xmlns="http://www.w3.org/2000/svg">
<path fill-rule="evenodd" clip-rule="evenodd" d="M19.3979 31.6248C18.9372 29.9806 17.5636 28.0496 16.4936 25.9642C17.4107 27.7517 18.3279 29.5393 19.3979 31.6248ZM21.982 31.4368C20.4555 29.2079 19.5363 26.67 18.617 24.132C17.8548 23.3928 17.2475 23.7019 16.6402 24.0109C15.5785 24.927 14.5147 25.0927 15.7334 25.9753C17.2599 28.2042 18.3299 30.2897 19.0963 32.5297C19.3999 32.3751 20.0072 32.0661 20.3109 31.9115C20.9182 31.6025 21.069 31.15 21.982 31.4368ZM15.4236 23.8787C14.9629 22.2345 13.5893 20.3036 12.5193 18.2181C13.4364 20.0056 14.3536 21.7932 15.4236 23.8787ZM11.2964 15.8347C10.9886 14.4884 9.46214 12.2595 8.54499 10.472C9.46214 12.2595 10.2264 13.7492 11.4493 16.1326C11.4493 16.1326 11.4493 16.1326 11.2964 15.8347ZM13.8805 15.6467C12.5069 13.7158 11.5877 11.1778 10.5156 8.34194C9.90624 7.90062 9.29894 8.20968 8.69165 8.51875C7.62991 9.43481 6.56611 9.60048 7.78484 10.4831C9.15849 12.4141 10.3813 14.7975 11.1477 17.0375C11.4513 16.883 12.0586 16.5739 12.3623 16.4194C12.8167 15.8124 13.1204 15.6578 13.8805 15.6467ZM7.32213 8.08857C7.01435 6.74233 5.48784 4.51346 4.5707 2.7259C5.48784 4.51346 6.25213 6.00309 7.47499 8.3865L7.32213 8.08857ZM9.90624 7.90062C8.53259 5.96967 7.61338 3.43172 6.54131 0.595853C5.93195 0.154533 5.32465 0.463599 4.71736 0.772666C3.65562 1.68872 2.43896 1.55647 3.81055 2.73704C5.1842 4.66799 6.40705 7.0514 7.17341 9.29142C7.47706 9.13688 8.08435 8.82782 8.23514 8.37536C8.84244 8.06629 9.14609 7.91176 9.90624 7.90062ZM9.32168 16.4639C8.10502 16.3317 7.19201 16.0449 5.97535 15.9126C7.19201 16.0449 7.95216 16.0338 9.32168 16.4639C7.49566 15.8904 6.12614 15.4602 4.45298 15.1845C5.82249 15.6147 7.03915 15.747 8.86517 16.3205C6.8863 15.449 5.21313 15.1734 3.69076 14.4453C5.06027 14.8755 6.42979 15.3056 8.40867 16.1771C6.73344 15.1511 4.90742 14.5775 3.08139 14.004C4.90742 14.5775 6.8863 15.449 9.32168 16.4639C9.77819 16.6073 9.77819 16.6073 9.32168 16.4639ZM8.71438 16.773C8.71438 16.773 8.41074 16.9275 8.25788 16.6296C5.97742 16.663 4.00061 16.5419 2.17665 16.7187C3.84982 16.9944 5.67377 16.8176 7.49773 16.6407C5.67377 16.8176 4.15346 16.8398 2.78601 17.16C4.30632 17.1378 6.13028 16.9609 7.95423 16.7841C6.43392 16.8064 5.06647 17.1266 3.69903 17.4468C5.52298 17.27 6.89043 16.9498 8.41074 16.9275C7.34693 17.0932 6.28313 17.2589 5.21933 17.4245C6.28313 17.2589 7.34693 17.0932 8.41074 16.9275C8.71438 16.773 8.71438 16.773 8.71438 16.773ZM9.63153 18.5606C9.02423 18.8696 8.56979 19.4766 7.65885 19.9402C8.26615 19.6311 8.72058 19.0242 9.63153 18.5606C8.72058 19.0242 7.65885 19.9402 6.74791 20.4038C7.65885 19.9402 8.41694 19.1787 9.32788 18.7151C8.11329 19.3332 6.8987 19.9514 5.83696 20.8674C6.59505 20.1059 7.80964 19.4878 9.02423 18.8696C7.80964 19.4878 6.59505 20.1059 5.38046 20.724C6.59505 20.1059 7.96043 19.0353 9.47867 18.2626C9.78232 18.1081 9.93518 18.406 9.63153 18.5606ZM9.78439 18.8585C9.48074 19.013 9.48074 19.013 9.48074 19.013C8.26821 20.3815 7.35934 21.5955 6.75411 22.655C7.35934 21.5955 8.26821 20.3815 9.0263 19.62C8.42107 20.6795 7.66298 21.441 7.05775 22.5004C7.66298 21.441 8.57186 20.227 9.17709 19.1675C8.57186 20.227 8.27028 21.1319 7.81584 21.7389C8.27028 21.1319 8.87551 20.0725 9.48074 19.013C9.17916 19.9179 8.72472 20.5249 8.57393 20.9774C9.02837 20.3704 9.0263 19.62 9.48074 19.013L9.78439 18.8585ZM10.5425 18.097C10.8461 17.9424 10.8461 17.9424 11.1498 17.7879C11.3026 18.0858 11.3026 18.0858 11.7591 18.2292C13.2856 20.4581 14.3556 22.5436 15.122 24.7836C15.4256 24.6291 16.0329 24.32 16.3366 24.1655C16.791 23.5585 17.0947 23.4039 17.8548 23.3928C16.4812 21.4618 15.562 18.9239 14.4899 16.088C13.8805 15.6467 13.2732 15.9558 12.6659 16.2648C11.9079 17.0264 11.1477 17.0375 10.9969 17.49C10.8441 17.192 10.3875 17.0486 10.2347 16.7507C10.0818 16.4528 9.62533 16.3094 8.86311 15.5702C6.88423 14.6987 3.68869 13.6949 2.01553 13.4193C2.4741 14.313 4.90948 15.3279 6.88836 16.1994C4.91155 16.0783 2.32744 16.2663 0.809202 17.0389C2.33157 17.767 7.9563 17.5345 9.62739 17.0598C9.62739 17.0598 9.93104 16.9052 10.0839 17.2032C10.5404 17.3466 10.9969 17.49 11.1498 17.7879C10.8461 17.9424 10.5425 18.097 10.086 17.9536C10.086 17.9536 9.78232 18.1081 9.17502 18.4172C7.50393 18.8919 5.53125 20.2716 4.46951 21.1876C5.38252 21.4744 7.20441 20.5472 8.56979 19.4766C7.66092 20.6906 6.60125 22.357 5.99602 23.4165C7.36347 23.0963 9.78645 19.6089 9.93518 18.406C10.2388 18.2515 10.2388 18.2515 10.5425 18.097Z" fill="#468E0D"/>
</svg>
