<svg width="33" height="30" viewBox="0 0 33 30" fill="none" xmlns="http://www.w3.org/2000/svg">
<path d="M28.1743 7.23909L28.1782 7.22513L28.178 7.21063L28.0821 1.15258L28.0819 1.14258L28.0798 1.13282C28.0313 0.910613 28.1382 0.696036 28.374 0.522101C28.61 0.348069 28.9617 0.227531 29.3541 0.204563C30.1288 0.159213 31.0324 0.49436 31.4726 1.49825C31.2842 2.37437 31.1772 3.23827 31.0707 4.09719L31.0705 4.09934C30.9625 4.97054 30.8552 5.83663 30.6646 6.71396L30.6554 6.75618L30.6798 6.79179C33.1412 10.3771 33.4114 14.285 32.1986 17.8178C30.9849 21.3533 28.2846 24.5151 24.8031 26.5944C21.3223 28.6733 17.0657 29.6672 12.7422 28.8738C8.42473 28.0815 4.03183 25.5054 0.272911 20.43C0.133783 19.8475 0.0778791 19.3617 0.107862 18.9745C0.138149 18.5834 0.255102 18.3025 0.452161 18.1196C0.648968 17.937 0.941107 17.838 1.35208 17.843C1.76321 17.848 2.28406 17.9573 2.92488 18.1815C13.4167 22.5384 25.0393 18.4704 28.1743 7.23909Z" fill="#FFEE2E" stroke="#468E0D" stroke-width="0.2"/>
</svg>
