<svg width="36" height="22" viewBox="0 0 36 22" fill="none" xmlns="http://www.w3.org/2000/svg">
<path d="M31.0601 0.664339C28.6263 2.79463 28.3335 6.90175 28.3335 6.90175C5.31266 2.17782 0.689482 19.507 0.689482 19.507C0.689482 19.507 15.8866 29.1244 29.5923 10.1098C29.5923 10.1098 32.6038 12.9317 35.8436 12.854C35.8436 12.854 33.0254 10.6969 31.7413 7.42471C30.4578 4.1528 31.0601 0.664339 31.0601 0.664339ZM6.47854 17.0471C5.93893 17.2571 5.31271 16.9456 5.07966 16.3518C4.84661 15.7579 5.09502 15.1066 5.63463 14.8966C6.17424 14.6866 6.80031 14.9977 7.03336 15.5916C7.26641 16.1855 7.01816 16.8372 6.47854 17.0471ZM11.6784 19.7048C11.652 19.8369 11.5659 19.9339 11.4568 19.9764C11.3868 20.0037 11.3061 20.008 11.2249 19.9828C11.0198 19.9205 10.8891 19.694 10.9337 19.4778C11.7378 15.5875 8.82144 13.7965 8.69757 13.722C8.50832 13.6094 8.42969 13.3599 8.52196 13.1648C8.61335 12.9696 8.8403 12.9016 9.02995 13.0132C9.0659 13.0348 12.6125 15.1863 11.6784 19.7048Z" fill="#7A7871"/>
</svg>
