<svg width="58" height="42" viewBox="0 0 58 42" fill="none" xmlns="http://www.w3.org/2000/svg">
<path d="M53.7501 31.5338C56.0937 27.0938 58 21.6492 58 15.8465C58 12.9318 57.0706 9.61843 55.5138 6.98355C54.1526 4.67954 51.6283 1.70282 47.3301 0.605337C41.8905 -0.783412 36.3792 0.511685 31.9507 1.55244C30.3503 1.92853 28.8386 2.28374 27.5437 2.45941C24.64 2.85302 21.5721 2.79536 18.9349 2.69555H18.9331C18.5205 2.6799 18.1174 2.66331 17.7283 2.64725C16.0621 2.57835 12.2248 2.51226 12.2248 2.51226C12.0154 1.64021 11.538 0.925767 10.9421 0.595972C10.6896 0.458575 10.414 0.388928 10.1355 0.392146C9.85694 0.395365 9.58256 0.471365 9.33249 0.614568C8.51285 1.04792 8.11983 2.01081 8.30562 3.09786C6.99233 3.75825 5.70929 5.07275 4.93115 6.10642C4.26304 6.99385 3.69648 8.39504 3.14837 9.75007C2.5903 11.1301 2.01331 12.5571 1.43586 13.1334C1.29451 13.2733 1.1695 13.4342 1.06404 13.6121C1.06221 13.6121 1.06037 13.6109 1.05842 13.6105C0.937676 13.5821 0.813179 13.5835 0.692918 13.6146C0.572657 13.6456 0.459286 13.7057 0.360075 13.7909C0.260865 13.8761 0.178006 13.9846 0.116811 14.1094C0.0556166 14.2341 0.0174376 14.3725 0.00472252 14.5155C-0.00799251 14.6585 0.00503716 14.803 0.0429759 14.9398C0.0809147 15.0766 0.142925 15.2026 0.22503 15.3098C0.307136 15.4169 0.407523 15.5029 0.519755 15.5621C0.631987 15.6214 0.753586 15.6526 0.876754 15.6537C0.981015 16.0329 1.12183 16.397 1.29649 16.739C2.45849 19.0738 4.29662 20.5253 5.91835 21.8057C6.81238 22.5116 7.65666 23.1784 8.31078 23.9231C8.80153 24.5013 9.22839 25.1489 9.58144 25.8507C9.58534 25.8597 9.5905 25.8673 9.59474 25.876C10.2587 27.1729 10.7854 28.7551 10.8837 30.2662C11.0081 32.1754 11.3023 37.3304 11.3948 38.9588C11.0753 39.0774 10.7755 39.2591 10.5086 39.4959C10.31 39.6712 10.1643 39.9157 10.0925 40.194C10.0208 40.4723 10.0267 40.77 10.1094 41.0442C10.1879 41.3239 10.3406 41.5673 10.5454 41.7391C10.7503 41.911 10.9966 42.0023 11.2488 42H16.6801C16.8551 42.0002 17.028 41.9557 17.1866 41.8695C17.3453 41.7833 17.4858 41.6576 17.5983 41.5012C18.7995 39.834 21.7957 35.5371 23.6919 31.6385C31.0323 31.6301 36.0454 31.3192 38.9697 30.6886C39.4052 33.9029 39.9805 37.5655 40.1907 38.8864C40.0092 38.9855 39.8376 39.1075 39.6788 39.2502C39.4616 39.4457 39.3022 39.7157 39.223 40.0224C39.1438 40.329 39.1488 40.6568 39.2373 40.96C39.3257 41.2631 39.4932 41.5264 39.7163 41.7128C39.9394 41.8993 40.2068 41.9996 40.4812 41.9997H45.5721C45.8732 41.9993 46.1652 41.8786 46.3994 41.6576C48.0783 40.0679 51.1503 36.4367 53.712 31.6063C53.7262 31.5832 53.7389 31.559 53.7501 31.5338ZM17.8733 16.2565C16.2311 20.2734 13.3406 23.5228 10.2615 24.8481C9.90794 24.2025 9.49559 23.6034 9.03162 23.0613C8.31136 22.2413 7.42994 21.5455 6.49672 20.8086C4.89206 19.5413 3.23227 18.2309 2.18879 16.1342C1.55357 14.8579 1.79083 14.3637 2.10649 14.0488C2.8522 13.3046 3.44936 11.8278 4.08171 10.2641C4.5991 8.98439 5.13414 7.6612 5.70643 6.9014C6.39895 5.98132 7.63052 4.70897 8.82232 4.15106C8.9394 4.09606 9.04467 4.01165 9.13065 3.90382C9.78214 5.01535 11.3338 4.85146 11.7233 3.83933C11.7505 3.76662 11.7706 3.69061 11.7834 3.61269C13.4234 3.86167 16.0367 3.78193 17.6919 3.8507C17.9725 3.86234 18.2618 3.87412 18.5548 3.88562C19.7618 7.84222 19.5238 12.2191 17.8733 16.2565ZM49.524 27.2852C48.5624 27.0767 43.7899 26.2342 39.7872 28.9726C39.5968 27.4624 39.4669 26.2065 39.4669 25.5927C39.4669 25.433 39.4126 25.2798 39.3158 25.1669C39.2191 25.054 39.0879 24.9906 38.9511 24.9906C38.8143 24.9906 38.6831 25.054 38.5864 25.1669C38.4897 25.2798 38.4353 25.433 38.4353 25.5927C38.4353 26.3055 38.5912 27.7746 38.8121 29.4983C36.3147 30.0429 32.1963 30.346 26.293 30.418C27.4682 29.585 28.4053 28.3893 29.0897 26.8341C30.0428 24.6698 30.464 21.8499 30.3079 18.6791C30.132 15.1069 27.7803 10.2953 25.8906 6.42952C25.4529 5.53433 25.0338 4.67686 24.6848 3.918C25.6787 3.8705 26.678 3.78889 27.6624 3.65537C28.9997 3.47421 30.5318 3.11405 32.1538 2.73221C36.4876 1.71366 41.8811 0.445993 47.1091 1.78109C54.2918 3.61563 56.9684 11.3821 56.9684 15.8465C56.9684 20.9849 55.4042 25.8407 53.3859 29.9204C52.7933 28.886 51.5584 27.727 49.524 27.2852Z" fill="#4B9200"/>
</svg>
