<svg width="30" height="27" viewBox="0 0 30 27" fill="none" xmlns="http://www.w3.org/2000/svg">
<path fill-rule="evenodd" clip-rule="evenodd" d="M8.10236 4.98763C8.00699 5.07187 7.91171 5.15603 7.81847 5.24233C7.60288 5.43749 7.39092 5.63575 7.18248 5.83643C5.38673 7.56574 3.78774 9.54369 2.6388 11.7566C1.48834 13.9723 0.804729 16.4212 0.868575 18.8281C0.897416 19.9138 1.08235 21.0666 1.71905 22.0344C1.82872 22.2012 1.95174 22.3607 2.08746 22.5105L4.36463 25.0667L4.38678 25.0916C4.64858 25.3854 4.96124 25.6409 5.32367 25.8383C5.86832 26.1349 6.51429 26.2899 7.19894 26.2324C7.79228 26.1825 8.35029 25.9796 8.84551 25.7117C9.33842 25.4451 9.76666 25.1174 10.153 24.787C10.9248 24.127 11.5508 23.46 12.2157 23.028C13.4032 22.2563 14.9418 22.0344 16.4924 21.9976C18.0522 21.9606 19.7258 22.0837 21.4829 21.6704C23.621 21.1675 25.6032 19.8826 27.0106 18.1526C28.4163 16.4246 29.2195 14.3012 29.3175 12.2136C29.4205 10.02 28.7454 7.89794 27.4229 6.2758C27.347 6.18257 27.2683 6.09176 27.1881 6.00227L24.8889 3.42128C23.5758 1.94226 21.7291 0.95535 19.68 0.65156C17.419 0.316371 15.0301 0.813793 12.8853 1.80006C11.1302 2.60705 9.53911 3.72571 8.10363 4.98791L8.10236 4.98763ZM9.10146 6.03905C9.20295 5.9494 9.30635 5.86201 9.40942 5.77453C10.6485 4.72736 11.9849 3.8224 13.4115 3.16641C15.3084 2.29421 17.3912 1.87562 19.2886 2.1569C21.0997 2.4254 22.7522 3.34853 23.8593 4.70642C24.9665 6.06443 25.5422 7.87325 25.4559 9.71169C25.3738 11.4604 24.6898 13.2579 23.5278 14.6862C22.3675 16.1125 20.7063 17.1847 18.9668 17.5939C17.5246 17.9331 15.9648 17.8388 14.3093 17.878C12.6447 17.9175 10.7816 18.1269 9.14886 19.1879C8.23346 19.7828 7.56019 20.5212 6.89678 21.0886C6.56545 21.3718 6.23533 21.6182 5.90217 21.7984C5.57129 21.9774 5.23105 22.092 4.92065 22.1181C4.56527 22.1479 4.18973 22.0647 3.86883 21.8899C3.54531 21.7137 3.26245 21.4412 3.04641 21.1128C2.61192 20.4524 2.44163 19.5637 2.41667 18.6231C2.36088 16.5213 2.96316 14.329 4.003 12.3263C5.04427 10.3208 6.51724 8.48842 8.20295 6.86507C8.49636 6.58262 8.79582 6.30667 9.10147 6.03906L9.10146 6.03905ZM10.015 7.07542C9.73026 7.32295 9.45147 7.58144 9.17646 7.84645C7.59569 9.36874 6.24291 11.0624 5.30423 12.8702C4.36992 14.6697 3.84517 16.6174 3.89322 18.4282C3.9145 19.2306 4.07096 19.8673 4.3126 20.2345C4.42989 20.4129 4.57284 20.5386 4.68817 20.6014C4.7958 20.66 4.91341 20.675 4.95477 20.6715C4.99586 20.668 5.12851 20.6375 5.30237 20.5435C5.48293 20.4458 5.71956 20.2773 5.99852 20.0387C6.55867 19.5597 7.2768 18.7532 8.43105 18.0031C10.4883 16.6662 12.6608 16.4686 14.4343 16.4266C16.181 16.3852 17.6323 16.4522 18.7742 16.1836C20.1336 15.8638 21.489 14.9942 22.4137 13.8576C23.3432 12.7149 23.9135 11.2281 23.9805 9.80255C24.0509 8.30275 23.5697 6.79259 22.6678 5.6864C21.7663 4.58064 20.3881 3.81122 18.9156 3.59289C17.3648 3.36301 15.5739 3.70641 13.9135 4.46987C12.6568 5.04773 11.447 5.86075 10.3003 6.8301C10.2046 6.91069 10.1096 6.99262 10.015 7.07541L10.015 7.07542ZM16.7828 9.01877C17.3287 8.53667 17.9803 8.21822 18.5945 8.13345C19.2086 8.04869 19.7349 8.20455 20.0576 8.56678C20.3803 8.92902 20.4729 9.46794 20.3152 10.065C20.1574 10.662 19.7621 11.2683 19.2163 11.7504C18.946 11.9891 18.6469 12.1902 18.3361 12.3421C18.0252 12.494 17.7087 12.5938 17.4046 12.6358C17.1005 12.6778 16.8148 12.6611 16.5637 12.5868C16.3127 12.5124 16.1012 12.3818 15.9414 12.2025C15.7816 12.0231 15.6767 11.7985 15.6325 11.5414C15.5883 11.2843 15.6057 10.9999 15.6839 10.7042C15.762 10.4086 15.8993 10.1076 16.0878 9.8184C16.2764 9.52921 16.5126 9.25749 16.7828 9.01877Z" fill="#EE8383"/>
</svg>
